<?xml version="1.0" encoding="UTF-8" standalone="no"?>
<!-- Created with Inkscape (http://www.inkscape.org/) -->

<svg
   xmlns:dc="http://purl.org/dc/elements/1.1/"
   xmlns:cc="http://creativecommons.org/ns#"
   xmlns:rdf="http://www.w3.org/1999/02/22-rdf-syntax-ns#"
   xmlns:svg="http://www.w3.org/2000/svg"
   xmlns="http://www.w3.org/2000/svg"
   xmlns:sodipodi="http://sodipodi.sourceforge.net/DTD/sodipodi-0.dtd"
   xmlns:inkscape="http://www.inkscape.org/namespaces/inkscape"
   width="64"
   height="64"
   viewBox="0 0 16.933333 16.933334"
   version="1.1"
   id="svg8"
   sodipodi:docname="reachedend.svg"
   inkscape:version="0.92.4 5da689c313, 2019-01-14">
  <defs
     id="defs2" />
  <sodipodi:namedview
     id="base"
     pagecolor="#000000"
     bordercolor="#666666"
     borderopacity="1.0"
     inkscape:pageopacity="1"
     inkscape:pageshadow="2"
     inkscape:zoom="5.6"
     inkscape:cx="11.132505"
     inkscape:cy="25.160998"
     inkscape:document-units="mm"
     inkscape:current-layer="layer1"
     showgrid="true"
     units="px"
     showguides="false"
     inkscape:window-width="1920"
     inkscape:window-height="1046"
     inkscape:window-x="0"
     inkscape:window-y="0"
     inkscape:window-maximized="1">
    <inkscape:grid
       type="xygrid"
       id="grid815"
       empspacing="4" />
    <inkscape:grid
       type="xygrid"
       id="grid817"
       empspacing="1"
       originy="0.13229167"
       originx="0.13229167"
       dotted="true" />
  </sodipodi:namedview>
  <metadata
     id="metadata5">
    <rdf:RDF>
      <cc:Work
         rdf:about="">
        <dc:format>image/svg+xml</dc:format>
        <dc:type
           rdf:resource="http://purl.org/dc/dcmitype/StillImage" />
        <dc:title></dc:title>
      </cc:Work>
    </rdf:RDF>
  </metadata>
  <g
     inkscape:label="Layer 1"
     inkscape:groupmode="layer"
     id="layer1"
     transform="translate(0,-280.06665)">
    <path
       style="opacity:1;fill:#ffffff;fill-opacity:1;stroke:none;stroke-width:0.26499999;stroke-linecap:round;stroke-linejoin:round;stroke-miterlimit:4;stroke-dasharray:none;stroke-dashoffset:0;stroke-opacity:1;paint-order:normal"
       d="m 11.460279,282.98378 c -0.270527,0 -0.541496,0.1038 -0.748791,0.31109 -0.414582,0.4146 -0.414579,1.08198 0,1.49655 l 1.497072,1.49707 0.721398,0.7214 a 1.058439,1.058439 0 0 0 0.02635,0.0274 c 0.422159,0.42215 0.423744,1.07334 0.0015,1.49551 a 1.0585954,1.0585954 0 0 0 -0.0011,0.001 l -2.24534,-2.24534 c -1.2437656,-1.24376 -3.2458826,-1.24376 -4.4896478,0 -1.2437655,1.24377 -1.2437628,3.2464 2.7e-6,4.49017 l 6.7349871,6.73499 c 1.243765,1.24376 3.246395,1.24376 4.490161,-10e-6 1.243765,-1.24376 1.24377,-3.24639 4e-6,-4.49016 l -2.993102,-2.99258 a 1.0585954,1.0585954 0 0 0 0.0011,-0.001 c 1.23105,-1.23105 1.229469,-3.2586 -0.0015,-4.48965 l -3e-6,-5.2e-4 -0.748275,-0.74827 -1.496549,-1.49655 c -0.207289,-0.20729 -0.477742,-0.31109 -0.748278,-0.3111 z m -1.8634515,3.89795 a 0.52916663,0.52916663 0 0 1 0.3663888,0.15504 0.52916663,0.52916663 0 0 1 0,0.74827 0.52916663,0.52916663 0 0 1 -0.7482748,0 0.52916663,0.52916663 0 0 1 2e-7,-0.74827 0.52916663,0.52916663 0 0 1 0.3818858,-0.15504 z m 1.2071615,1.85467 a 0.52921955,0.52921955 0 0 1 0.527619,0.54622 c 0,0.56116 -0.223309,1.09871 -0.620118,1.49552 -0.396808,0.39681 -0.9343471,0.62011 -1.4955155,0.62012 a 0.52921955,0.52921955 0 0 1 -0.3839558,-0.90331 0.52921955,0.52921955 0 0 1 0.3839552,-0.15451 c 0.2808912,0 0.548622,-0.11196 0.7472417,-0.31058 0.1986194,-0.19861 0.3105754,-0.46635 0.3105754,-0.74724 a 0.52921955,0.52921955 0 0 1 0.530219,-0.5462 z m -3.4519856,0.39016 a 0.52916663,0.52916663 0 0 1 0.3663887,0.15503 0.52916663,0.52916663 0 0 1 -2e-7,0.74827 0.52916663,0.52916663 0 0 1 -0.7482746,0 0.52916663,0.52916663 0 0 1 1e-7,-0.74827 0.52916663,0.52916663 0 0 1 0.381886,-0.15503 z"
       id="rect821"
       inkscape:connector-curvature="0" />
  </g>
</svg>
